<?xml version="1.0" standalone="no"?>
<!DOCTYPE svg PUBLIC "-//W3C//DTD SVG 20010904//EN"
 "http://www.w3.org/TR/2001/REC-SVG-20010904/DTD/svg10.dtd">
<svg version="1.0" xmlns="http://www.w3.org/2000/svg"
 width="3840.000000pt" height="2160.000000pt" viewBox="0 0 3840.000000 2160.000000"
 preserveAspectRatio="xMidYMid meet">

<g transform="translate(0.000000,2160.000000) scale(0.100000,-0.100000)"
fill="#000000" stroke="none">
<path d="M15233 20639 c-36 -17 -74 -45 -88 -63 -15 -19 -49 -106 -80 -202
-31 -93 -94 -288 -141 -434 -47 -146 -96 -296 -109 -335 -12 -38 -55 -171 -95
-295 -39 -124 -75 -234 -80 -245 -4 -11 -29 -87 -55 -170 -26 -82 -69 -215
-95 -295 -26 -80 -87 -266 -135 -415 -48 -148 -97 -301 -110 -340 -13 -38 -62
-191 -110 -340 -48 -148 -104 -322 -125 -385 -20 -63 -63 -196 -94 -295 -32
-99 -62 -189 -66 -200 -7 -17 -81 -245 -104 -322 l-7 -23 1591 0 1590 0 10
-22 c9 -22 143 -437 145 -448 1 -6 131 -409 200 -615 29 -88 78 -241 110 -340
31 -99 61 -189 65 -200 5 -11 29 -87 55 -170 26 -82 50 -159 55 -170 5 -11 29
-87 55 -170 26 -82 51 -159 55 -170 5 -11 30 -87 55 -170 26 -82 51 -159 55
-170 8 -19 100 -300 105 -320 1 -5 5 -17 8 -25 6 -15 96 -296 102 -320 1 -3 5
-12 8 -20 7 -16 51 -151 52 -160 1 -6 114 -355 165 -510 21 -64 40 -125 42
-135 1 -11 5 -22 8 -25 3 -3 18 -45 34 -95 16 -49 44 -137 63 -195 20 -58 36
-110 37 -117 1 -7 5 -16 9 -19 4 -4 7 -18 7 -30 0 -13 4 -25 9 -28 9 -6 25
-72 19 -79 -2 -2 2 -10 8 -18 6 -8 25 -61 43 -119 18 -58 36 -114 41 -125 4
-11 34 -101 65 -200 32 -99 75 -232 96 -295 90 -277 161 -496 164 -505 9 -40
19 -72 25 -80 9 -12 23 -73 18 -78 -2 -2 2 -10 8 -18 6 -8 29 -70 52 -139 22
-69 79 -246 127 -395 48 -148 91 -274 96 -279 10 -11 13 -3 84 219 32 99 81
252 110 340 61 186 222 684 302 930 30 94 58 179 63 190 4 11 22 65 39 120 55
174 173 539 181 560 5 11 47 142 95 290 48 149 90 279 94 290 4 11 15 43 23
70 23 71 181 563 238 735 26 80 80 246 120 370 40 124 101 311 135 415 35 105
98 298 140 430 43 132 107 330 142 440 36 110 68 209 73 220 4 11 29 88 55
170 25 83 50 159 55 170 4 11 47 142 95 290 48 149 108 335 135 415 26 80 55
170 64 200 9 30 22 67 28 83 l10 27 1589 0 c899 0 1589 4 1589 9 0 5 -25 84
-55 177 -31 93 -69 212 -86 264 -16 52 -33 102 -36 110 -3 8 -7 20 -8 25 -2 6
-16 51 -33 100 -16 50 -62 191 -102 315 -39 124 -83 259 -97 300 -30 92 -32
100 -33 103 0 1 -18 56 -40 122 -23 66 -43 127 -45 135 -2 8 -24 80 -50 160
-106 325 -126 386 -210 645 -48 149 -109 335 -135 415 -26 80 -87 267 -135
415 -48 149 -104 322 -125 385 -21 63 -72 221 -114 352 -42 130 -86 248 -98
263 -26 33 -91 75 -118 75 -11 0 -20 5 -20 10 0 30 -147 -8 -201 -52 -31 -25
-65 -94 -98 -198 -18 -58 -55 -170 -81 -250 -26 -80 -87 -266 -135 -415 -48
-148 -104 -322 -125 -385 -20 -63 -63 -196 -95 -295 -31 -99 -60 -187 -65
-195 -4 -9 -11 -31 -15 -50 -4 -19 -11 -41 -16 -50 -4 -8 -29 -82 -55 -165
-25 -82 -68 -215 -94 -295 -96 -292 -209 -640 -269 -830 -34 -107 -66 -204
-71 -215 -7 -18 -63 -191 -191 -590 -23 -71 -61 -188 -85 -260 l-42 -130
-2275 -3 -2274 -2 -58 177 c-32 98 -79 243 -105 323 -63 191 -165 506 -284
875 -54 165 -115 352 -136 415 -21 63 -77 237 -125 385 -48 149 -98 302 -110
340 -13 39 -80 246 -150 460 -70 215 -144 442 -165 505 -21 63 -63 196 -95
295 -32 99 -71 218 -87 265 -17 47 -31 90 -32 95 -14 56 -23 78 -48 125 -30
57 -91 110 -127 110 -11 0 -23 5 -26 10 -12 19 -81 9 -142 -21z"/>
</g>
</svg>
