<?xml version="1.0" standalone="no"?>
<!DOCTYPE svg PUBLIC "-//W3C//DTD SVG 20010904//EN"
 "http://www.w3.org/TR/2001/REC-SVG-20010904/DTD/svg10.dtd">
<svg version="1.0" xmlns="http://www.w3.org/2000/svg"
 width="360.000000pt" height="191.000000pt" viewBox="0 0 360.000000 191.000000"
 preserveAspectRatio="xMidYMid meet">

<g transform="translate(0.000000,191.000000) scale(0.100000,-0.100000)"
fill="#000000" stroke="none">
<path d="M150 1675 c0 -3 30 -55 68 -114 37 -60 135 -220 217 -355 l150 -245
233 -1 232 0 0 360 0 360 -450 0 c-247 0 -450 -2 -450 -5z m740 -350 l0 -195
-109 0 -108 0 -117 189 c-64 104 -116 192 -116 195 0 3 101 6 225 6 l225 0 0
-195z"/>
<path d="M1130 1320 l0 -360 340 2 341 3 2 355 2 355 -343 3 -342 2 0 -360z
m510 5 l0 -195 -175 0 -175 0 0 195 0 195 175 0 175 0 0 -195z"/>
<path d="M2350 1405 l0 -275 -225 0 -225 0 0 -85 0 -85 303 2 302 3 3 358 3
357 -81 0 -80 0 0 -275z"/>
<path d="M2590 1320 l0 -360 232 2 231 3 105 170 c58 94 151 244 207 335 56
91 107 175 114 188 l12 22 -451 0 -450 0 0 -360z m608 191 c-1 -5 -55 -92
-118 -195 l-114 -186 -108 0 -108 0 0 195 0 195 226 0 c124 0 224 -4 222 -9z"/>
<path d="M661 848 c37 -72 84 -138 98 -138 9 -1 96 0 193 0 l178 1 2 -243 3
-243 29 50 c16 28 51 85 79 128 l49 77 526 0 527 0 75 -123 75 -122 3 238 2
238 195 -4 195 -4 50 79 c28 43 50 81 50 83 0 3 -527 5 -1170 5 l-1171 0 12
-22z m1117 -186 l3 -42 -245 0 -246 0 0 43 0 42 243 0 242 0 3 -43z m570 1 l3
-43 -250 0 -251 0 0 39 c0 33 4 40 23 43 12 2 123 3 247 3 l225 0 3 -42z"/>
<path d="M1363 265 c0 -27 2 -38 4 -22 2 15 2 37 0 50 -2 12 -4 0 -4 -28z"/>
<path d="M1430 265 c0 -25 5 -45 10 -45 6 0 10 14 10 31 l0 31 26 -31 c14 -17
30 -31 35 -31 5 0 8 21 7 48 -1 36 -2 39 -5 15 -2 -18 -7 -33 -9 -33 -3 0 -17
14 -31 30 -13 17 -29 30 -34 30 -5 0 -9 -20 -9 -45z"/>
<path d="M1590 300 c0 -5 7 -10 15 -10 10 0 15 -11 15 -35 0 -19 5 -35 10 -35
6 0 10 16 10 35 0 28 4 35 20 35 11 0 20 5 20 10 0 6 -20 10 -45 10 -25 0 -45
-4 -45 -10z"/>
<path d="M1740 265 l0 -45 48 2 47 1 -42 4 c-40 4 -43 6 -43 34 0 27 2 29 40
29 22 0 40 5 40 10 0 6 -20 10 -45 10 l-45 0 0 -45z"/>
<path d="M1891 268 l-1 -48 48 1 47 2 -40 6 c-38 6 -40 8 -46 46 l-6 40 -2
-47z"/>
<path d="M2040 265 c0 -25 5 -45 10 -45 6 0 10 20 10 45 0 25 -4 45 -10 45 -5
0 -10 -20 -10 -45z"/>
<path d="M1770 260 c0 -5 14 -10 30 -10 17 0 30 5 30 10 0 6 -13 10 -30 10
-16 0 -30 -4 -30 -10z"/>
</g>
</svg>
